<?xml version="1.0" encoding="utf-8"?>
<!-- Generator: Adobe Illustrator 25.4.1, SVG Export Plug-In . SVG Version: 6.00 Build 0)  -->
<svg version="1.1" id="Layer_1" xmlns="http://www.w3.org/2000/svg" xmlns:xlink="http://www.w3.org/1999/xlink" x="0px" y="0px"
	 width="300px" height="300px" viewBox="0 0 300 300" style="enable-background:new 0 0 300 300;" xml:space="preserve">
<style type="text/css">
	.st0{fill:#008CFF;}
	.st1{opacity:0.2;}
</style>
<g>
	<path class="st0" d="M266.8828125,100.5692215C258.3762512,43.6524811,209.2858734,0,150,0
		S41.6237526,43.6524811,33.1171837,100.5692215c-1.5690193,10.4981155-0.5368996,21.2142944,2.7346535,31.3121414
		c2.8327255,8.7432251,6.7261429,19.2395325,12.0509071,30.699295c4.0431633,8.7013245,10.9365273,22.2971954,31.6728096,50.5244293
		c7.3425293,9.9949188,16.4055557,21.8084106,27.7132874,35.9107971C117.5126419,261.7664795,131.9584198,279.367981,150,300
		c18.0415039-20.632019,32.4874115-38.2335205,42.7110748-50.9841156
		c11.3077393-14.1023865,20.3708344-25.9158783,27.7133636-35.9108734
		c20.7363434-28.2271576,27.6295776-41.8230286,31.6727448-50.524353
		c5.3248138-11.4597626,9.2182465-21.9560699,12.0508881-30.699295
		C267.4197693,121.7835159,268.4518127,111.067337,266.8828125,100.5692215z M150.2988586,141.9044495
		c-22.2681274,0-40.3200302-17.1401978-40.3200302-38.2836761s18.0519028-38.2836761,40.3200302-38.2836761
		c22.2681885,0,40.3200378,17.1401978,40.3200378,38.2836761S172.5670471,141.9044495,150.2988586,141.9044495z"/>
	<path class="st1" d="M150.2989349,46.5706558c-33.1839218,0-60.0847473,25.5421753-60.0847473,57.0500488
		c0,31.5079422,26.9008255,57.0501785,60.0847473,57.0501785c33.1838379,0,60.084671-25.5422363,60.084671-57.0501785
		C210.383606,72.1128311,183.4827728,46.5706558,150.2989349,46.5706558z M150.2988586,141.9044495
		c-22.2681274,0-40.3200302-17.1401978-40.3200302-38.2836761s18.0519028-38.2836761,40.3200302-38.2836761
		c22.2681885,0,40.3200378,17.1401978,40.3200378,38.2836761S172.5670471,141.9044495,150.2988586,141.9044495z"/>
</g>
</svg>
