<?xml version="1.0" encoding="utf-8"?>
<!-- Generator: Adobe Illustrator 25.4.1, SVG Export Plug-In . SVG Version: 6.00 Build 0)  -->
<svg version="1.1" id="Layer_1" xmlns="http://www.w3.org/2000/svg" xmlns:xlink="http://www.w3.org/1999/xlink" x="0px" y="0px"
	 width="300px" height="300px" viewBox="0 0 300 300" style="enable-background:new 0 0 300 300;" xml:space="preserve">
<style type="text/css">
	.st0{fill:none;stroke:#008CFF;stroke-width:8;stroke-linecap:round;stroke-linejoin:round;stroke-miterlimit:10;}
	.st1{fill:#008CFF;stroke:#008CFF;stroke-width:8;stroke-linecap:round;stroke-linejoin:round;stroke-miterlimit:10;}
	.st2{fill:#FFFFFF;}
</style>
<g>
	<g>
		<path class="st0" d="M236.3731079,125.2873459h-34.0937653c-6.5481415,0-10.405899,7.3496628-6.6865082,12.7389603
			l19.4769287,28.2216644c4.5219879,6.5522614,11.9749146,10.4642029,19.9360962,10.4642029h36.857666"/>
		<g>
			<circle class="st0" cx="107.509758" cy="238.0106354" r="17.9572067"/>
			<circle class="st0" cx="242.0622406" cy="238.0106354" r="17.9572067"/>
		</g>
		<path class="st0" d="M260.0139771,237.957901C271.1400757,237.4100494,280,228.2425842,280,216.9803162v-21.9261017
			c0-4.2672272-1.2980042-8.4333038-3.7217407-11.9452057l-45.7767487-66.3296432
			c-3.9259796-5.6886292-10.3964996-9.0848999-17.3083496-9.0848999H40.2335167v109.2858505
			c0,11.6147614,9.415554,21.0303192,21.0300941,21.0303192h28.2890167"/>
		<path class="st0" d="M125.4668884,238.0106354h98.6382141"/>
	</g>
	<g>
		<circle class="st1" cx="83.4363251" cy="107.4684906" r="63.4363289"/>
		<path class="st2" d="M117.3567123,93.1232681c-2.468689-16.5177231-16.7151184-29.1860504-33.9203949-29.1860504
			S51.9846153,76.605545,49.5159378,93.1232681c-0.4553375,3.0466309-0.1558189,6.1565552,0.7936249,9.0870514
			c0.8220825,2.5373459,1.951973,5.5834732,3.4972801,8.9091873c1.1733513,2.5252075,3.1738701,6.4708405,9.1917191,14.6626205
			c2.1308632,2.9006119,4.7610283,6.3289871,8.0426216,10.4216232c2.9670258,3.7003326,7.159317,8.8084259,12.395134,14.7960052
			c5.235817-5.9875793,9.4281235-11.0956726,12.395134-14.7960052c3.2815933-4.0926361,5.9117813-7.5210114,8.0426407-10.4216385
			c6.017868-8.1917648,8.0183487-12.1373978,9.1916962-14.6626053c1.545311-3.3257141,2.6752243-6.3718414,3.4972916-8.9091873
			C117.5125351,99.2798233,117.8120575,96.169899,117.3567123,93.1232681z M83.5230713,110.5652847
			c-9.6302414,0-17.4370956-7.4125748-17.4370956-16.5564499c0-9.1438522,7.8068542-16.5564194,17.4370956-16.5564194
			s17.437088,7.4125671,17.437088,16.5564194C100.9601593,103.15271,93.1533127,110.5652847,83.5230713,110.5652847z"/>
	</g>
</g>
</svg>
