<?xml version="1.0" encoding="utf-8"?>
<!-- Generator: Adobe Illustrator 25.4.1, SVG Export Plug-In . SVG Version: 6.00 Build 0)  -->
<svg version="1.1" id="Layer_1" xmlns="http://www.w3.org/2000/svg" xmlns:xlink="http://www.w3.org/1999/xlink" x="0px" y="0px"
	 width="300px" height="300px" viewBox="0 0 300 300" style="enable-background:new 0 0 300 300;" xml:space="preserve">
<style type="text/css">
	.st0{fill:none;stroke:#F9C7C6;stroke-width:20;stroke-linecap:round;stroke-linejoin:round;stroke-miterlimit:10;}
	.st1{fill:none;stroke:#F9C7C6;stroke-width:10;stroke-linecap:round;stroke-linejoin:round;stroke-miterlimit:10;}
</style>
<g>
	<path class="st0" d="M241.9337006,111.9337006C241.9337006,61.1601219,200.7735748,20,150,20
		s-91.9337006,41.1601219-91.9337006,91.9337006c0,5.9025269-0.317997,15.7675629,4.0918999,27.2016907
		c8.2196274,21.3121643,29.1666031,39.5549316,35.4630432,57.1699371c1.2269897,3.4326782,2.0626068,6.9235382,2.0626068,6.9236298
		c1.9249115,8.1746063,1.9656906,15.2064667,1.7157898,19.7913055v20.5693817
		C101.3996353,263.6984863,117.7011337,280,137.8099976,280h24.3800049c20.1088562,0,36.4103546-16.3015137,36.4103546-36.4103546
		v-20.5693817c-0.2498932-4.5848389-0.2091217-11.6166992,1.7157898-19.7913055
		c0-0.0000916,0.8356628-3.4909515,2.0627136-6.9236298c6.2966156-17.6150055,27.2433624-35.8578644,35.4629364-57.1699371
		C242.251709,127.7012177,241.9337006,117.8360901,241.9337006,111.9337006z"/>
	<line class="st0" x1="101.3996353" y1="226.3720093" x2="198.6003571" y2="226.3720093"/>
	<g>
		<path class="st1" d="M156.4980164,226.3720093c2.5178528-9.2088318,4.8551025-21.4053955,4.9868164-35.8145447
			c0.1893005-20.7068481-4.2536774-37.4958038-8.1602631-48.5083008"/>
		<path class="st1" d="M89.855751,110.1636505c27.752388-4.9527817,51.2020798,2.2829971,58.2090683,17.0938644
			c3.5448456,7.4928818,4.9019012,21.1953506-2.5983124,27.9387589c-6.0401764,5.4306946-15.2042694,3.9918518-17.5294724,3.6267853
			c-9.4462662-1.483139-15.3924255-7.5848236-19.9473343-12.39151
			C96.173172,133.9618225,91.6992188,119.3787308,89.855751,110.1636505z"/>
		<path class="st1" d="M210.1442566,96.2609482c-0.5829773,8.0426941-3.1129761,25.5379333-16.6227722,39.2902145
			c-5.2602386,5.3546448-15.9587555,16.2451324-28.1076355,13.298233
			c-7.0489502-1.7098236-13.0263977-7.6996155-15.1413727-14.6864624c-3.22052-10.6389084,3.5828552-20.0606995,5.772171-23.092598
			C171.3644714,89.854393,207.9900208,95.8779144,210.1442566,96.2609482z"/>
	</g>
</g>
</svg>
