<?xml version="1.0" encoding="utf-8"?>
<!-- Generator: Adobe Illustrator 25.4.1, SVG Export Plug-In . SVG Version: 6.00 Build 0)  -->
<svg version="1.1" id="Layer_1" xmlns="http://www.w3.org/2000/svg" xmlns:xlink="http://www.w3.org/1999/xlink" x="0px" y="0px"
	 width="300px" height="300px" viewBox="0 0 300 300" style="enable-background:new 0 0 300 300;" xml:space="preserve">
<style type="text/css">
	.st0{fill:none;stroke:#008CFF;stroke-width:8;stroke-linecap:round;stroke-linejoin:round;stroke-miterlimit:10;}
	.st1{fill:#008CFF;}
</style>
<g>
	<path class="st0" d="M41.2152786,96.2607346h-8.7537041C25.5792694,96.2607346,20,101.8399506,20,108.7222595v138.7376099
		c0,6.882309,5.5792694,12.4615784,12.4615746,12.4615784h235.0769043c6.8822937,0,12.4615173-5.5792694,12.4615173-12.4615784
		V108.7222595c0-6.882309-5.5792236-12.461525-12.4615173-12.461525h-8.7537537"/>
	<path class="st0" d="M158.221756,259.9214172c0,3.4454346-3.6809998,6.2384949-8.2217255,6.2384949
		c-4.540741,0-8.2217407-2.7930603-8.2217407-6.2384949"/>
	<path class="st1" d="M150,33.8400803c-28.9182587,0-52.3611145,23.442852-52.3611145,52.3611069
		S121.0817413,138.5623016,150,138.5623016s52.3611145-23.4428558,52.3611145-52.3611145S178.9182587,33.8400803,150,33.8400803z
		 M163.3313446,110.3810806c-5.6101837,5.2818832-9.6249084,8.5853653-12.2738495,10.0988312
		c-2.7956543,1.5977707-5.0835724,2.374527-6.9938812,2.374527c-1.8759766,0-3.4075623-0.6231918-4.5526733-1.8526077
		c-1.113327-1.1936569-1.6783905-2.8078995-1.6783905-4.7971649c0-5.1989594,2.9572906-17.307724,9.0410614-37.0177994
		c0.1474457-0.4856644,0.2480164-0.9336395,0.3005829-1.3377457c-0.3061981,0.1007767-0.6910248,0.2774353-1.1677551,0.5760803
		c-0.5124969,0.3217392-2.0396271,1.5134659-6.5009613,5.8739548l-1.0501709,1.0264206l-5.2382965-4.048172l1.2284698-1.3528442
		c4.0832825-4.4968643,7.8905487-7.7570343,11.3155365-9.6897125c3.574295-2.0168076,6.5892639-2.9970627,9.2174835-2.9970627
		c1.6701202,0,3.0156403,0.4114456,3.9991913,1.2225876c1.065979,0.8804092,1.6291199,2.1159973,1.6291199,3.5736389
		c0,0.5927811,0,1.9814453-3.9455261,15.1870499c-5.1633606,17.3416595-6.2472534,23.2207947-6.2472534,25.0988617
		c0,0.0395584,0.0014343,0.0768127,0.0040283,0.1116333c0.8582458-0.4323807,3.0603638-1.8879318,8.2692413-6.781189
		l1.1773529-1.1060486l4.7500458,4.6289978L163.3313446,110.3810806z M164.52005,61.3681908
		c-1.543396,1.6950226-3.3408966,2.5542145-5.3428345,2.5542145c-1.6465912,0-3.1028137-0.6154251-4.2112274-1.7793846
		c-1.1020203-1.1561852-1.6609039-2.6541138-1.6609039-4.451622c0-2.2226181,0.7334442-4.1457024,2.1795807-5.7161446
		c1.4828186-1.6105499,3.2883759-2.4273148,5.3661346-2.4273148c1.7000427,0,3.1317902,0.5831337,4.2559662,1.733429
		c1.1128235,1.1418037,1.6762238,2.5940514,1.6762238,4.3181114C166.7829895,57.7778511,166.0214996,59.718792,164.52005,61.3681908
		z"/>
	<g>
		<path class="st0" d="M150,138.5623016v102.2073517c30.0401306-18.9583435,78.7447815-18.9583435,108.784729,0v-166.5625
			c-17.2827148-10.9071732-40.7413177-15.525753-63.2713165-13.882637"/>
		<path class="st0" d="M104.4865952,60.3245163c-22.5299377-1.643116-45.9885483,2.9754639-63.2713127,13.882637v166.5625
			c30.0401192-18.9583435,78.7447662-18.9583435,108.7847137,0V138.5623016"/>
	</g>
</g>
</svg>
