<?xml version="1.0" encoding="utf-8"?>
<!-- Generator: Adobe Illustrator 25.4.1, SVG Export Plug-In . SVG Version: 6.00 Build 0)  -->
<svg version="1.1" id="Layer_1" xmlns="http://www.w3.org/2000/svg" xmlns:xlink="http://www.w3.org/1999/xlink" x="0px" y="0px"
	 width="186.4955444px" height="218.1429443px" viewBox="0 0 186.4955444 218.1429443"
	 style="enable-background:new 0 0 186.4955444 218.1429443;" xml:space="preserve">
<style type="text/css">
	.st0{fill:url(#SVGID_1_);}
</style>
<linearGradient id="SVGID_1_" gradientUnits="userSpaceOnUse" x1="17.3999939" y1="161.9993439" x2="217.0991516" y2="46.7029877">
	<stop  offset="0" style="stop-color:#CC00FF"/>
	<stop  offset="0.5" style="stop-color:#4728EF"/>
	<stop  offset="1" style="stop-color:#04F0F8"/>
</linearGradient>
<path class="st0" d="M41.4203491,146.5791626l-24.9229126,20.1821899C6.0461426,150.0258179,0,130.2561646,0,109.0714722
	C0,87.0039673,6.5598145,66.4716797,17.8266602,49.305542l24.8304443,20.1072388
	c-6.9406738,11.5980225-10.9389038,25.1595459-10.9389038,39.6586914
	C31.7182007,122.6841431,35.246521,135.4677734,41.4203491,146.5791626z M58.0265503,50.9767456
	c13.6226196-11.9790649,31.4786987-19.2584839,51.0448608-19.2584839c19.4198608,0,37.1536255,7.1727295,50.7373047,18.9920044
	l24.9298096-20.1876831C165.1259766,11.6251221,138.4577026,0,109.0714111,0
	C79.5400391,0,52.7549438,11.7415771,33.1157227,30.8044434L58.0265503,50.9767456z M161.659729,165.7789307
	c-13.802124,12.805603-32.2756958,20.645752-52.5883179,20.645752c-20.4578247,0-39.0473022-7.9557495-52.8805542-20.9244385
	l-24.8245239,20.102478c19.7824707,20.0839844,47.2872925,32.5402222,77.7050781,32.5402222
	c30.2731934,0,57.6627197-12.3363037,77.4241333-32.2525024L161.659729,165.7789307z"/>
</svg>
