<?xml version="1.0" encoding="utf-8"?>
<!-- Generator: Adobe Illustrator 25.4.1, SVG Export Plug-In . SVG Version: 6.00 Build 0)  -->
<svg version="1.1" id="Layer_1" xmlns="http://www.w3.org/2000/svg" xmlns:xlink="http://www.w3.org/1999/xlink" x="0px" y="0px"
	 width="300px" height="300px" viewBox="0 0 300 300" style="enable-background:new 0 0 300 300;" xml:space="preserve">
<style type="text/css">
	.st0{fill:none;stroke:#008CFF;stroke-width:8;stroke-linecap:round;stroke-linejoin:round;stroke-miterlimit:10;}
	.st1{fill:#008CFF;}
</style>
<g>
	<g>
		<path class="st0" d="M76.3481216,72.3236618c-5.7727585-0.089859-10.2891922-5.0569839-10.2891922-10.8304443V37.1497574
			c0-5.7734585,4.5164337-10.7405891,10.2891922-10.8304462c5.8509521-0.0910721,10.6223526,4.6243877,10.6223526,10.4544697
			V61.869194C86.9704742,67.6992798,82.1990738,72.4147339,76.3481216,72.3236618z"/>
		<path class="st0" d="M149.8334198,72.3236618c-5.7727661-0.089859-10.2891998-5.0569839-10.2891998-10.8304443V37.1497574
			c0-5.7734585,4.5164337-10.7405891,10.2891998-10.8304462c5.8509521-0.0910721,10.6223602,4.6243877,10.6223602,10.4544697
			V61.869194C160.45578,67.6992798,155.6843719,72.4147339,149.8334198,72.3236618z"/>
		<path class="st0" d="M223.3187256,72.3236618c-5.7727661-0.0898438-10.2891998-5.0569687-10.2891998-10.8304329v-24.343483
			c0-5.7734604,4.5164337-10.7405872,10.2891998-10.8304348c5.8509521-0.0910645,10.622345,4.6243935,10.622345,10.4544697
			V61.869194C233.9410706,67.6992722,229.1696777,72.4147263,223.3187256,72.3236618z"/>
	</g>
	<g>
		<path class="st1" d="M85.0000229,170.6078033h-0.0000381c-11.2066956,0-20.2915192-9.0848236-20.2915192-20.2915344v-0.0000458
			c0-11.2066956,9.0848236-20.2915192,20.2915192-20.2915192h0.0000381c11.2066956,0,20.2915192,9.0848236,20.2915192,20.2915192
			v0.0000458C105.2915421,161.5229797,96.2067184,170.6078033,85.0000229,170.6078033z"/>
		<path class="st1" d="M138.9133148,130.024704h22.1733704c5.0836945,0,9.2048492,4.1211548,9.2048492,9.2048492v22.1733551
			c0,5.0837097-4.1211548,9.2048645-9.2048492,9.2048645h-22.1733704c-5.0837097,0-9.2048645-4.1211548-9.2048645-9.2048645
			v-22.1733551C129.7084503,134.1458588,133.8296051,130.024704,138.9133148,130.024704z"/>
		<path class="st1" d="M203.9133148,130.024704h22.1733704c5.0836945,0,9.2048492,4.1211548,9.2048492,9.2048492v22.1733551
			c0,5.0837097-4.1211548,9.2048645-9.2048492,9.2048645h-22.1733704c-5.0837097,0-9.2048645-4.1211548-9.2048645-9.2048645
			v-22.1733551C194.7084503,134.1458588,198.8296051,130.024704,203.9133148,130.024704z"/>
		<path class="st1" d="M203.9133148,190.1004639h22.1733704c5.0836945,0,9.2048492,4.1211548,9.2048492,9.2048492v22.1733551
			c0,5.0837097-4.1211548,9.2048645-9.2048492,9.2048645h-22.1733704c-5.0837097,0-9.2048645-4.1211548-9.2048645-9.2048645
			v-22.1733551C194.7084503,194.2216187,198.8296051,190.1004639,203.9133148,190.1004639z"/>
		<path class="st1" d="M138.9133148,190.1004639h22.1733704c5.0836945,0,9.2048492,4.1211548,9.2048492,9.2048492v22.1733551
			c0,5.0837097-4.1211548,9.2048645-9.2048492,9.2048645h-22.1733704c-5.0837097,0-9.2048645-4.1211548-9.2048645-9.2048645
			v-22.1733551C129.7084503,194.2216187,133.8296051,190.1004639,138.9133148,190.1004639z"/>
		<path class="st1" d="M73.9133148,190.1004639h22.1733856c5.0837021,0,9.2048492,4.1211548,9.2048492,9.2048492v22.1733551
			c0,5.0837097-4.1211472,9.2048645-9.2048492,9.2048645H73.9133148c-5.0837021,0-9.2048492-4.1211548-9.2048492-9.2048645
			v-22.1733551C64.7084656,194.2216187,68.8296127,190.1004639,73.9133148,190.1004639z"/>
	</g>
	<line class="st0" x1="160.4557648" y1="51.3222656" x2="213.0295105" y2="51.3222656"/>
	<line class="st0" x1="86.9704666" y1="51.3222656" x2="139.54422" y2="51.3222656"/>
	<path class="st0" d="M233.9410706,51.3222656h4.6843414C261.4759827,51.3222656,280,69.8462982,280,92.696846v139.6105652
		c0,22.8505554-18.5240173,41.374588-41.374588,41.374588H61.3745804C38.5240326,273.6820068,20,255.1579742,20,232.3074188
		V92.696846c0-22.8505478,18.5240326-41.3745804,41.3745804-41.3745804h4.6843491"/>
	<line class="st0" x1="20" y1="92.696846" x2="280" y2="92.696846"/>
</g>
</svg>
